<svg width="102" height="25" class="primary" fill="#282c33" viewBox="0 0 102 25" xmlns="http://www.w3.org/2000/svg">
  <path d="M8.61849 19.9011V0L0 4.9727V24.8789L8.61849 19.9011Z"/>
  <path d="M17.2373 24.5668V14.9232L8.61863 19.9011V24.572L17.2373 24.5668Z"/>
  <path fill-rule="evenodd" clip-rule="evenodd" d="M84.251 16.228V16.4789C84.251 21.932 87.385 24.7841 91.3653 24.7841C93.7787 24.7841 95.7844 23.3736 96.6307 21.7126V24.4394H101.144V0.619934H96.6307V10.4926C95.7219 8.83148 94.0921 7.67168 91.4594 7.67168C87.3537 7.67168 84.251 10.8373 84.251 16.228ZM96.7561 16.0712V16.3219C96.7561 19.6442 95.0951 21.2425 92.7131 21.2425C90.4565 21.2425 88.8894 19.6442 88.8894 16.3848V16.134C88.8894 12.8745 90.2999 11.1508 92.8385 11.1508C95.3144 11.1508 96.7561 12.8119 96.7561 16.0712ZM77.137 3.34672C77.137 1.93627 78.2653 0.870737 79.707 0.870737C81.1801 0.870737 82.3083 1.93627 82.3083 3.34672C82.3083 4.75717 81.1801 5.82271 79.707 5.82271C78.2653 5.82271 77.137 4.75717 77.137 3.34672ZM77.4818 8.04789H81.995V24.4394H77.4818V8.04789ZM25.865 1.97949H30.9422V20.4081H40.0625V24.3885H25.865V1.97949ZM41.8327 18.6118V8.04986H46.3459V17.985C46.3459 20.2103 47.2548 21.2759 49.198 21.2759C51.1097 21.2759 52.6141 20.0849 52.6141 17.6715V8.04986H57.1273V24.4413H52.6141V21.8715C51.768 23.5325 50.1068 24.786 47.4114 24.786C44.2147 24.786 41.8327 22.9057 41.8327 18.6118ZM59.1795 16.1967V16.4473C59.1795 21.8068 62.8152 24.7841 67.6105 24.7842C72.3743 24.7842 75.195 22.0889 75.4458 18.2026H71.3401C71.1206 20.3024 69.6476 21.3679 67.8298 21.3679C65.2911 21.3679 63.8181 19.6756 63.8181 16.3848V16.1342C63.8181 12.9998 65.3852 11.2448 67.7357 11.2448C69.5848 11.2448 70.7445 12.1225 71.0578 14.0341H75.3515C74.9442 9.3329 71.4339 7.67181 67.6416 7.67181C62.9718 7.67181 59.1795 10.9 59.1795 16.1967Z"/>
</svg>
